# xmcd
#
# Track frame offsets: 
#        150
#        21480
#        33570
#        44605
#        58415
#        73405
#        84730
#        101070
#        109915
#        121122
#        133230
#        141725
#        158360
#        170387
#        179585
#        192092
#        204197
#        215117
#        227880
#        242117
#        258085
#        274220
#        285232
#        295590
#        305832
#        315300
#        328667
#        339705
#
# Disc length: 4680 seconds
#
# Revision: 0
# Processed by: cddbd v1.5.1PL0 Copyright (c) Steve Scherf et al.
# Submitted via: ExactAudioCopy v0.95a5
#
DISCID=bc12461c
DTITLE=Various Artist - Neo Rockabilly Story, Part Five
DYEAR=1993
DGENRE=Rock and Roll
TTITLE0=Rumble Cats - Rumble
TTITLE1=Rumble Cats/ Alley Cat
TTITLE2=Alphabets - Fallin'
TTITLE3=Alphabets - It's The Rock
TTITLE4=Ringlets Trio - Bad dream
TTITLE5=Bloomin' Brothers - Gone Gone Gone
TTITLE6=Tuxedo Buck - Tarture Van
TTITLE7=Johnny Earl - That's Allright Mama
TTITLE8=Johnny Earl - Everybody But Me
TTITLE9=Struts - How Do You Do
TTITLE10=Struts - Cool Man Cool
TTITLE11=Wendy's Tube - Trampcat
TTITLE12=Wendy's Tube - Weekend Bop
TTITLE13=Cross Your Heart and The Paytex - Dynamite
TTITLE14=Lennerockers - Women, Booze And Rock 'n' Roll
TTITLE15=Lennerockers - The Confession
TTITLE16=Hangman - Quicksand
TTITLE17=Hangman - Medicine Man
TTITLE18=Runaway Boys - Girlaholoc
TTITLE19=Jean Vincent - Streetwise
TTITLE20=Scam - Stop That Gorilla
TTITLE21=Dirty Doggies - Take A Baby
TTITLE22=Session '57 - Cool Cruisin' Car
TTITLE23=Shakin' Silhouets - Silhouet Rock
TTITLE24=Jump Back Band - Mary Jayne
TTITLE25=Chinesischen Glueckskekse - Bad Guys
TTITLE26=Jumpin' Shoues - Fabrias Boogie
TTITLE27=Angelo Santoro - Baracuda
EXTD=
EXTT0=
EXTT1=
EXTT2=
EXTT3=
EXTT4=
EXTT5=
EXTT6=
EXTT7=
EXTT8=
EXTT9=
EXTT10=
EXTT11=
EXTT12=
EXTT13=
EXTT14=
EXTT15=
EXTT16=
EXTT17=
EXTT18=
EXTT19=
EXTT20=
EXTT21=
EXTT22=
EXTT23=
EXTT24=
EXTT25=
EXTT26=
EXTT27=
PLAYORDER=
